STARTFONT 2.1
FONT -TakWolf-Retro Pixel Petty 5x5-Regular-R-Normal-Sans Serif-5-50-75-75-M-60-ISO10646-1
SIZE 5 75 75
FONTBOUNDINGBOX 5 9 0 -2
STARTPROPERTIES 22
FOUNDRY "TakWolf"
FAMILY_NAME "Retro Pixel Petty 5x5"
WEIGHT_NAME "Regular"
SLANT "R"
SETWIDTH_NAME "Normal"
ADD_STYLE_NAME "Sans Serif"
PIXEL_SIZE 5
POINT_SIZE 50
RESOLUTION_X 75
RESOLUTION_Y 75
SPACING "M"
AVERAGE_WIDTH 60
CHARSET_REGISTRY "ISO10646"
CHARSET_ENCODING "1"
DEFAULT_CHAR 65534
FONT_ASCENT 7
FONT_DESCENT 2
X_HEIGHT 5
CAP_HEIGHT 5
FONT_VERSION "2025.10.20"
COPYRIGHT "Copyright (c) 2023, TakWolf (https://takwolf.com), with Reserved Font Name ""Retro Pixel"""
LICENSE "This Font Software is licensed under the SIL Open Font License, Version 1.1"
ENDPROPERTIES
CHARS 96
STARTCHAR u0020
ENCODING 32
SWIDTH 1200 0
DWIDTH 6 0
BBX 6 9 0 -2
BITMAP
00
00
00
00
00
00
00
00
00
ENDCHAR
STARTCHAR u0021
ENCODING 33
SWIDTH 1200 0
DWIDTH 6 0
BBX 6 9 0 -2
BITMAP
00
00
20
20
20
00
20
00
00
ENDCHAR
STARTCHAR u0022
ENCODING 34
SWIDTH 1200 0
DWIDTH 6 0
BBX 6 9 0 -2
BITMAP
00
00
50
50
00
00
00
00
00
ENDCHAR
STARTCHAR u0023
ENCODING 35
SWIDTH 1200 0
DWIDTH 6 0
BBX 6 9 0 -2
BITMAP
00
00
50
F8
50
F8
50
00
00
ENDCHAR
STARTCHAR u0024
ENCODING 36
SWIDTH 1200 0
DWIDTH 6 0
BBX 6 9 0 -2
BITMAP
00
00
70
A0
70
28
70
00
00
ENDCHAR
STARTCHAR u0025
ENCODING 37
SWIDTH 1200 0
DWIDTH 6 0
BBX 6 9 0 -2
BITMAP
00
00
48
10
20
40
90
00
00
ENDCHAR
STARTCHAR u0026
ENCODING 38
SWIDTH 1200 0
DWIDTH 6 0
BBX 6 9 0 -2
BITMAP
00
00
40
A0
68
90
68
00
00
ENDCHAR
STARTCHAR u0027
ENCODING 39
SWIDTH 1200 0
DWIDTH 6 0
BBX 6 9 0 -2
BITMAP
00
00
20
20
00
00
00
00
00
ENDCHAR
STARTCHAR u0028
ENCODING 40
SWIDTH 1200 0
DWIDTH 6 0
BBX 6 9 0 -2
BITMAP
00
00
10
20
20
20
10
00
00
ENDCHAR
STARTCHAR u0029
ENCODING 41
SWIDTH 1200 0
DWIDTH 6 0
BBX 6 9 0 -2
BITMAP
00
00
40
20
20
20
40
00
00
ENDCHAR
STARTCHAR u002A
ENCODING 42
SWIDTH 1200 0
DWIDTH 6 0
BBX 6 9 0 -2
BITMAP
00
00
20
A8
70
A8
20
00
00
ENDCHAR
STARTCHAR u002B
ENCODING 43
SWIDTH 1200 0
DWIDTH 6 0
BBX 6 9 0 -2
BITMAP
00
00
00
20
70
20
00
00
00
ENDCHAR
STARTCHAR u002C
ENCODING 44
SWIDTH 1200 0
DWIDTH 6 0
BBX 6 9 0 -2
BITMAP
00
00
00
00
00
20
40
00
00
ENDCHAR
STARTCHAR u002D
ENCODING 45
SWIDTH 1200 0
DWIDTH 6 0
BBX 6 9 0 -2
BITMAP
00
00
00
00
70
00
00
00
00
ENDCHAR
STARTCHAR u002E
ENCODING 46
SWIDTH 1200 0
DWIDTH 6 0
BBX 6 9 0 -2
BITMAP
00
00
00
00
00
00
20
00
00
ENDCHAR
STARTCHAR u002F
ENCODING 47
SWIDTH 1200 0
DWIDTH 6 0
BBX 6 9 0 -2
BITMAP
00
00
08
10
20
40
80
00
00
ENDCHAR
STARTCHAR u0030
ENCODING 48
SWIDTH 1200 0
DWIDTH 6 0
BBX 6 9 0 -2
BITMAP
00
00
70
98
A8
C8
70
00
00
ENDCHAR
STARTCHAR u0031
ENCODING 49
SWIDTH 1200 0
DWIDTH 6 0
BBX 6 9 0 -2
BITMAP
00
00
20
E0
20
20
F8
00
00
ENDCHAR
STARTCHAR u0032
ENCODING 50
SWIDTH 1200 0
DWIDTH 6 0
BBX 6 9 0 -2
BITMAP
00
00
F0
08
70
80
F8
00
00
ENDCHAR
STARTCHAR u0033
ENCODING 51
SWIDTH 1200 0
DWIDTH 6 0
BBX 6 9 0 -2
BITMAP
00
00
70
88
30
88
70
00
00
ENDCHAR
STARTCHAR u0034
ENCODING 52
SWIDTH 1200 0
DWIDTH 6 0
BBX 6 9 0 -2
BITMAP
00
00
30
50
90
F8
10
00
00
ENDCHAR
STARTCHAR u0035
ENCODING 53
SWIDTH 1200 0
DWIDTH 6 0
BBX 6 9 0 -2
BITMAP
00
00
F8
80
F0
08
F0
00
00
ENDCHAR
STARTCHAR u0036
ENCODING 54
SWIDTH 1200 0
DWIDTH 6 0
BBX 6 9 0 -2
BITMAP
00
00
70
80
F0
88
70
00
00
ENDCHAR
STARTCHAR u0037
ENCODING 55
SWIDTH 1200 0
DWIDTH 6 0
BBX 6 9 0 -2
BITMAP
00
00
F8
08
10
20
20
00
00
ENDCHAR
STARTCHAR u0038
ENCODING 56
SWIDTH 1200 0
DWIDTH 6 0
BBX 6 9 0 -2
BITMAP
00
00
70
88
70
88
70
00
00
ENDCHAR
STARTCHAR u0039
ENCODING 57
SWIDTH 1200 0
DWIDTH 6 0
BBX 6 9 0 -2
BITMAP
00
00
70
88
78
08
70
00
00
ENDCHAR
STARTCHAR u003A
ENCODING 58
SWIDTH 1200 0
DWIDTH 6 0
BBX 6 9 0 -2
BITMAP
00
00
00
20
00
00
20
00
00
ENDCHAR
STARTCHAR u003B
ENCODING 59
SWIDTH 1200 0
DWIDTH 6 0
BBX 6 9 0 -2
BITMAP
00
00
00
20
00
20
40
00
00
ENDCHAR
STARTCHAR u003C
ENCODING 60
SWIDTH 1200 0
DWIDTH 6 0
BBX 6 9 0 -2
BITMAP
00
00
10
20
40
20
10
00
00
ENDCHAR
STARTCHAR u003D
ENCODING 61
SWIDTH 1200 0
DWIDTH 6 0
BBX 6 9 0 -2
BITMAP
00
00
00
70
00
70
00
00
00
ENDCHAR
STARTCHAR u003E
ENCODING 62
SWIDTH 1200 0
DWIDTH 6 0
BBX 6 9 0 -2
BITMAP
00
00
40
20
10
20
40
00
00
ENDCHAR
STARTCHAR u003F
ENCODING 63
SWIDTH 1200 0
DWIDTH 6 0
BBX 6 9 0 -2
BITMAP
00
00
70
88
30
00
20
00
00
ENDCHAR
STARTCHAR u0040
ENCODING 64
SWIDTH 1200 0
DWIDTH 6 0
BBX 6 9 0 -2
BITMAP
00
00
78
A8
B8
80
70
00
00
ENDCHAR
STARTCHAR u0041
ENCODING 65
SWIDTH 1200 0
DWIDTH 6 0
BBX 6 9 0 -2
BITMAP
00
00
70
88
F8
88
88
00
00
ENDCHAR
STARTCHAR u0042
ENCODING 66
SWIDTH 1200 0
DWIDTH 6 0
BBX 6 9 0 -2
BITMAP
00
00
F0
88
F0
88
F0
00
00
ENDCHAR
STARTCHAR u0043
ENCODING 67
SWIDTH 1200 0
DWIDTH 6 0
BBX 6 9 0 -2
BITMAP
00
00
78
80
80
80
78
00
00
ENDCHAR
STARTCHAR u0044
ENCODING 68
SWIDTH 1200 0
DWIDTH 6 0
BBX 6 9 0 -2
BITMAP
00
00
F0
88
88
88
F0
00
00
ENDCHAR
STARTCHAR u0045
ENCODING 69
SWIDTH 1200 0
DWIDTH 6 0
BBX 6 9 0 -2
BITMAP
00
00
F8
80
F0
80
F8
00
00
ENDCHAR
STARTCHAR u0046
ENCODING 70
SWIDTH 1200 0
DWIDTH 6 0
BBX 6 9 0 -2
BITMAP
00
00
F8
80
F0
80
80
00
00
ENDCHAR
STARTCHAR u0047
ENCODING 71
SWIDTH 1200 0
DWIDTH 6 0
BBX 6 9 0 -2
BITMAP
00
00
78
80
98
88
78
00
00
ENDCHAR
STARTCHAR u0048
ENCODING 72
SWIDTH 1200 0
DWIDTH 6 0
BBX 6 9 0 -2
BITMAP
00
00
88
88
F8
88
88
00
00
ENDCHAR
STARTCHAR u0049
ENCODING 73
SWIDTH 1200 0
DWIDTH 6 0
BBX 6 9 0 -2
BITMAP
00
00
F8
20
20
20
F8
00
00
ENDCHAR
STARTCHAR u004A
ENCODING 74
SWIDTH 1200 0
DWIDTH 6 0
BBX 6 9 0 -2
BITMAP
00
00
08
08
08
88
70
00
00
ENDCHAR
STARTCHAR u004B
ENCODING 75
SWIDTH 1200 0
DWIDTH 6 0
BBX 6 9 0 -2
BITMAP
00
00
88
90
E0
90
88
00
00
ENDCHAR
STARTCHAR u004C
ENCODING 76
SWIDTH 1200 0
DWIDTH 6 0
BBX 6 9 0 -2
BITMAP
00
00
80
80
80
80
F8
00
00
ENDCHAR
STARTCHAR u004D
ENCODING 77
SWIDTH 1200 0
DWIDTH 6 0
BBX 6 9 0 -2
BITMAP
00
00
88
D8
A8
88
88
00
00
ENDCHAR
STARTCHAR u004E
ENCODING 78
SWIDTH 1200 0
DWIDTH 6 0
BBX 6 9 0 -2
BITMAP
00
00
88
C8
A8
98
88
00
00
ENDCHAR
STARTCHAR u004F
ENCODING 79
SWIDTH 1200 0
DWIDTH 6 0
BBX 6 9 0 -2
BITMAP
00
00
70
88
88
88
70
00
00
ENDCHAR
STARTCHAR u0050
ENCODING 80
SWIDTH 1200 0
DWIDTH 6 0
BBX 6 9 0 -2
BITMAP
00
00
F0
88
F0
80
80
00
00
ENDCHAR
STARTCHAR u0051
ENCODING 81
SWIDTH 1200 0
DWIDTH 6 0
BBX 6 9 0 -2
BITMAP
00
00
70
88
A8
90
68
00
00
ENDCHAR
STARTCHAR u0052
ENCODING 82
SWIDTH 1200 0
DWIDTH 6 0
BBX 6 9 0 -2
BITMAP
00
00
F0
88
F0
88
88
00
00
ENDCHAR
STARTCHAR u0053
ENCODING 83
SWIDTH 1200 0
DWIDTH 6 0
BBX 6 9 0 -2
BITMAP
00
00
78
80
70
08
F0
00
00
ENDCHAR
STARTCHAR u0054
ENCODING 84
SWIDTH 1200 0
DWIDTH 6 0
BBX 6 9 0 -2
BITMAP
00
00
F8
20
20
20
20
00
00
ENDCHAR
STARTCHAR u0055
ENCODING 85
SWIDTH 1200 0
DWIDTH 6 0
BBX 6 9 0 -2
BITMAP
00
00
88
88
88
88
70
00
00
ENDCHAR
STARTCHAR u0056
ENCODING 86
SWIDTH 1200 0
DWIDTH 6 0
BBX 6 9 0 -2
BITMAP
00
00
88
88
50
50
20
00
00
ENDCHAR
STARTCHAR u0057
ENCODING 87
SWIDTH 1200 0
DWIDTH 6 0
BBX 6 9 0 -2
BITMAP
00
00
A8
A8
A8
50
50
00
00
ENDCHAR
STARTCHAR u0058
ENCODING 88
SWIDTH 1200 0
DWIDTH 6 0
BBX 6 9 0 -2
BITMAP
00
00
88
50
20
50
88
00
00
ENDCHAR
STARTCHAR u0059
ENCODING 89
SWIDTH 1200 0
DWIDTH 6 0
BBX 6 9 0 -2
BITMAP
00
00
88
50
20
20
20
00
00
ENDCHAR
STARTCHAR u005A
ENCODING 90
SWIDTH 1200 0
DWIDTH 6 0
BBX 6 9 0 -2
BITMAP
00
00
F8
10
20
40
F8
00
00
ENDCHAR
STARTCHAR u005B
ENCODING 91
SWIDTH 1200 0
DWIDTH 6 0
BBX 6 9 0 -2
BITMAP
00
00
70
40
40
40
70
00
00
ENDCHAR
STARTCHAR u005C
ENCODING 92
SWIDTH 1200 0
DWIDTH 6 0
BBX 6 9 0 -2
BITMAP
00
00
80
40
20
10
08
00
00
ENDCHAR
STARTCHAR u005D
ENCODING 93
SWIDTH 1200 0
DWIDTH 6 0
BBX 6 9 0 -2
BITMAP
00
00
70
10
10
10
70
00
00
ENDCHAR
STARTCHAR u005E
ENCODING 94
SWIDTH 1200 0
DWIDTH 6 0
BBX 6 9 0 -2
BITMAP
00
00
20
50
00
00
00
00
00
ENDCHAR
STARTCHAR u005F
ENCODING 95
SWIDTH 1200 0
DWIDTH 6 0
BBX 6 9 0 -2
BITMAP
00
00
00
00
00
00
F8
00
00
ENDCHAR
STARTCHAR u0060
ENCODING 96
SWIDTH 1200 0
DWIDTH 6 0
BBX 6 9 0 -2
BITMAP
00
00
20
10
00
00
00
00
00
ENDCHAR
STARTCHAR u0041
ENCODING 97
SWIDTH 1200 0
DWIDTH 6 0
BBX 6 9 0 -2
BITMAP
00
00
70
88
F8
88
88
00
00
ENDCHAR
STARTCHAR u0042
ENCODING 98
SWIDTH 1200 0
DWIDTH 6 0
BBX 6 9 0 -2
BITMAP
00
00
F0
88
F0
88
F0
00
00
ENDCHAR
STARTCHAR u0043
ENCODING 99
SWIDTH 1200 0
DWIDTH 6 0
BBX 6 9 0 -2
BITMAP
00
00
78
80
80
80
78
00
00
ENDCHAR
STARTCHAR u0044
ENCODING 100
SWIDTH 1200 0
DWIDTH 6 0
BBX 6 9 0 -2
BITMAP
00
00
F0
88
88
88
F0
00
00
ENDCHAR
STARTCHAR u0045
ENCODING 101
SWIDTH 1200 0
DWIDTH 6 0
BBX 6 9 0 -2
BITMAP
00
00
F8
80
F0
80
F8
00
00
ENDCHAR
STARTCHAR u0046
ENCODING 102
SWIDTH 1200 0
DWIDTH 6 0
BBX 6 9 0 -2
BITMAP
00
00
F8
80
F0
80
80
00
00
ENDCHAR
STARTCHAR u0047
ENCODING 103
SWIDTH 1200 0
DWIDTH 6 0
BBX 6 9 0 -2
BITMAP
00
00
78
80
98
88
78
00
00
ENDCHAR
STARTCHAR u0048
ENCODING 104
SWIDTH 1200 0
DWIDTH 6 0
BBX 6 9 0 -2
BITMAP
00
00
88
88
F8
88
88
00
00
ENDCHAR
STARTCHAR u0049
ENCODING 105
SWIDTH 1200 0
DWIDTH 6 0
BBX 6 9 0 -2
BITMAP
00
00
F8
20
20
20
F8
00
00
ENDCHAR
STARTCHAR u004A
ENCODING 106
SWIDTH 1200 0
DWIDTH 6 0
BBX 6 9 0 -2
BITMAP
00
00
08
08
08
88
70
00
00
ENDCHAR
STARTCHAR u004B
ENCODING 107
SWIDTH 1200 0
DWIDTH 6 0
BBX 6 9 0 -2
BITMAP
00
00
88
90
E0
90
88
00
00
ENDCHAR
STARTCHAR u004C
ENCODING 108
SWIDTH 1200 0
DWIDTH 6 0
BBX 6 9 0 -2
BITMAP
00
00
80
80
80
80
F8
00
00
ENDCHAR
STARTCHAR u004D
ENCODING 109
SWIDTH 1200 0
DWIDTH 6 0
BBX 6 9 0 -2
BITMAP
00
00
88
D8
A8
88
88
00
00
ENDCHAR
STARTCHAR u004E
ENCODING 110
SWIDTH 1200 0
DWIDTH 6 0
BBX 6 9 0 -2
BITMAP
00
00
88
C8
A8
98
88
00
00
ENDCHAR
STARTCHAR u004F
ENCODING 111
SWIDTH 1200 0
DWIDTH 6 0
BBX 6 9 0 -2
BITMAP
00
00
70
88
88
88
70
00
00
ENDCHAR
STARTCHAR u0050
ENCODING 112
SWIDTH 1200 0
DWIDTH 6 0
BBX 6 9 0 -2
BITMAP
00
00
F0
88
F0
80
80
00
00
ENDCHAR
STARTCHAR u0051
ENCODING 113
SWIDTH 1200 0
DWIDTH 6 0
BBX 6 9 0 -2
BITMAP
00
00
70
88
A8
90
68
00
00
ENDCHAR
STARTCHAR u0052
ENCODING 114
SWIDTH 1200 0
DWIDTH 6 0
BBX 6 9 0 -2
BITMAP
00
00
F0
88
F0
88
88
00
00
ENDCHAR
STARTCHAR u0053
ENCODING 115
SWIDTH 1200 0
DWIDTH 6 0
BBX 6 9 0 -2
BITMAP
00
00
78
80
70
08
F0
00
00
ENDCHAR
STARTCHAR u0054
ENCODING 116
SWIDTH 1200 0
DWIDTH 6 0
BBX 6 9 0 -2
BITMAP
00
00
F8
20
20
20
20
00
00
ENDCHAR
STARTCHAR u0055
ENCODING 117
SWIDTH 1200 0
DWIDTH 6 0
BBX 6 9 0 -2
BITMAP
00
00
88
88
88
88
70
00
00
ENDCHAR
STARTCHAR u0056
ENCODING 118
SWIDTH 1200 0
DWIDTH 6 0
BBX 6 9 0 -2
BITMAP
00
00
88
88
50
50
20
00
00
ENDCHAR
STARTCHAR u0057
ENCODING 119
SWIDTH 1200 0
DWIDTH 6 0
BBX 6 9 0 -2
BITMAP
00
00
A8
A8
A8
50
50
00
00
ENDCHAR
STARTCHAR u0058
ENCODING 120
SWIDTH 1200 0
DWIDTH 6 0
BBX 6 9 0 -2
BITMAP
00
00
88
50
20
50
88
00
00
ENDCHAR
STARTCHAR u0059
ENCODING 121
SWIDTH 1200 0
DWIDTH 6 0
BBX 6 9 0 -2
BITMAP
00
00
88
50
20
20
20
00
00
ENDCHAR
STARTCHAR u005A
ENCODING 122
SWIDTH 1200 0
DWIDTH 6 0
BBX 6 9 0 -2
BITMAP
00
00
F8
10
20
40
F8
00
00
ENDCHAR
STARTCHAR u007B
ENCODING 123
SWIDTH 1200 0
DWIDTH 6 0
BBX 6 9 0 -2
BITMAP
00
00
30
20
40
20
30
00
00
ENDCHAR
STARTCHAR u007C
ENCODING 124
SWIDTH 1200 0
DWIDTH 6 0
BBX 6 9 0 -2
BITMAP
00
00
20
20
20
20
20
00
00
ENDCHAR
STARTCHAR u007D
ENCODING 125
SWIDTH 1200 0
DWIDTH 6 0
BBX 6 9 0 -2
BITMAP
00
00
60
20
10
20
60
00
00
ENDCHAR
STARTCHAR u007E
ENCODING 126
SWIDTH 1200 0
DWIDTH 6 0
BBX 6 9 0 -2
BITMAP
00
00
00
40
A8
10
00
00
00
ENDCHAR
STARTCHAR .notdef
ENCODING 65534
SWIDTH 1200 0
DWIDTH 6 0
BBX 6 9 0 -2
BITMAP
00
00
F8
88
88
88
F8
00
00
ENDCHAR
ENDFONT
